<svg width="50" height="50" viewBox="0 0 50 50" fill="none" xmlns="http://www.w3.org/2000/svg">
<g id="linkedin">
<g id="Page 1">
<g id="Social icons">
<g id="Color">
<g id="Telegram">
<g id="Group 1948754580">
<path id="Oval" d="M25 50C38.8071 50 50 38.8071 50 25C50 11.1929 38.8071 0 25 0C11.1929 0 0 11.1929 0 25C0 38.8071 11.1929 50 25 50Z" fill="black"/>
<path id="Shape" fill-rule="evenodd" clip-rule="evenodd" d="M19.7562 19.7377V33.8574H15.0568V19.7377H19.7562ZM20.0657 15.3699C20.0657 16.7257 19.0452 17.8105 17.4066 17.8105H17.3766C15.7989 17.8105 14.7789 16.7257 14.7789 15.3699C14.7789 13.9855 15.8299 12.931 17.4376 12.931C19.0452 12.931 20.0352 13.9855 20.0657 15.3699ZM36.7039 25.7616L36.7037 33.8574H32.0046V26.3033C32.0046 24.4059 31.3245 23.1112 29.6233 23.1112C28.325 23.1112 27.5517 23.984 27.2121 24.8271C27.0878 25.1292 27.0573 25.5502 27.0573 25.9722V33.8577H22.3574C22.3574 33.8577 22.4193 21.063 22.3574 19.7381H27.0573V21.738C27.6811 20.7766 28.7981 19.4061 31.2932 19.4061C34.3856 19.4061 36.7039 21.4246 36.7039 25.7616Z" fill="white"/>
</g>
</g>
</g>
</g>
</g>
</g>
</svg>
