<svg width="50" height="50" viewBox="0 0 50 50" fill="none" xmlns="http://www.w3.org/2000/svg">
<g id="resume">
<g id="Page 1">
<g id="Social icons">
<g id="Color">
<g id="Telegram">
<g id="Group 1948754580">
<path id="Oval" d="M25 50C38.8071 50 50 38.8071 50 25C50 11.1929 38.8071 0 25 0C11.1929 0 0 11.1929 0 25C0 38.8071 11.1929 50 25 50Z" fill="black"/>
<path id="Vector" d="M27 14.5H19C18.4696 14.5 17.9609 14.7107 17.5858 15.0858C17.2107 15.4609 17 15.9696 17 16.5V32.5C17 33.0304 17.2107 33.5391 17.5858 33.9142C17.9609 34.2893 18.4696 34.5 19 34.5H31C31.5304 34.5 32.0391 34.2893 32.4142 33.9142C32.7893 33.5391 33 33.0304 33 32.5V20.5M27 14.5C27.3166 14.4995 27.6301 14.5616 27.9225 14.6828C28.215 14.8039 28.4806 14.9818 28.704 15.206L32.292 18.794C32.5168 19.0175 32.6952 19.2833 32.8167 19.5762C32.9382 19.869 33.0005 20.183 33 20.5M27 14.5V19.5C27 19.7652 27.1054 20.0196 27.2929 20.2071C27.4804 20.3946 27.7348 20.5 28 20.5L33 20.5M29 34.5C29 33.4391 28.5786 32.4217 27.8284 31.6716C27.0783 30.9214 26.0609 30.5 25 30.5M25 30.5C23.9391 30.5 22.9217 30.9214 22.1716 31.6716C21.4214 32.4217 21 33.4391 21 34.5M25 30.5C26.6569 30.5 28 29.1569 28 27.5C28 25.8431 26.6569 24.5 25 24.5C23.3431 24.5 22 25.8431 22 27.5C22 29.1569 23.3431 30.5 25 30.5Z" stroke="white" stroke-width="2" stroke-linecap="round" stroke-linejoin="round"/>
</g>
</g>
</g>
</g>
</g>
</g>
</svg>
