<svg width="50" height="50" viewBox="0 0 50 50" fill="none" xmlns="http://www.w3.org/2000/svg">
<g id="telegram-hover">
<g id="Page 1">
<g id="Social icons">
<g id="Color">
<g id="Telegram">
<g id="Group 1948754580">
<path id="Oval" d="M25 50C38.8071 50 50 38.8071 50 25C50 11.1929 38.8071 0 25 0C11.1929 0 0 11.1929 0 25C0 38.8071 11.1929 50 25 50Z" fill="url(#paint0_linear_72_1040)"/>
<path id="Path-3" fill-rule="evenodd" clip-rule="evenodd" d="M12.807 23.6818C19.0551 21.0053 23.2214 19.2408 25.306 18.3883C31.2581 15.9542 32.4949 15.5313 33.301 15.5174C33.4783 15.5143 33.8748 15.5575 34.1316 15.7624C34.3484 15.9354 34.408 16.1691 34.4366 16.3331C34.4651 16.4971 34.5007 16.8707 34.4724 17.1626C34.1499 20.4947 32.7542 28.5809 32.0442 32.3129C31.7438 33.8921 31.1522 34.4215 30.5795 34.4734C29.3348 34.586 28.3897 33.6646 27.1842 32.8877C25.2979 31.6719 24.2322 30.9151 22.4012 29.7287C20.2851 28.3577 21.6569 27.6041 22.8628 26.3726C23.1784 26.0503 28.6623 21.1461 28.7684 20.7012C28.7817 20.6455 28.794 20.4381 28.6687 20.3286C28.5434 20.2191 28.3584 20.2565 28.225 20.2863C28.0358 20.3285 25.0223 22.2869 19.1846 26.1614C18.3292 26.7389 17.5544 27.0202 16.8603 27.0055C16.095 26.9892 14.623 26.5801 13.5286 26.2303C12.1864 25.8013 11.1197 25.5745 11.2125 24.846C11.2609 24.4665 11.7924 24.0785 12.807 23.6818Z" fill="white"/>
</g>
</g>
</g>
</g>
</g>
</g>
<defs>
<linearGradient id="paint0_linear_72_1040" x1="-53.125" y1="-43.75" x2="84.375" y2="93.75" gradientUnits="userSpaceOnUse">
<stop offset="0.1875" stop-color="#EA252E"/>
<stop offset="1" stop-color="#FFCF61"/>
</linearGradient>
</defs>
</svg>
